<svg xmlns="http://www.w3.org/2000/svg" viewBox="0 0 64 64">
  <rect width="64" height="64" rx="16" fill="#e99275"/>
  <path d="M14 24L19 12L27 20M37 20L45 12L50 24" fill="#f8bc6f" stroke="#704937" stroke-width="3" stroke-linejoin="round"/>
  <circle cx="32" cy="33" r="22" fill="#f6b36e" stroke="#704937" stroke-width="3"/>
  <path d="M15 20Q15 9 25 12Q32 3 39 12Q50 9 50 20L47 26H17Z" fill="#fffaf0" stroke="#704937" stroke-width="3"/>
  <circle cx="24" cy="33" r="2.6" fill="#49312a"/><circle cx="40" cy="33" r="2.6" fill="#49312a"/>
  <path d="M28 39Q32 43 36 39M30 36L32 38L34 36" fill="none" stroke="#704937" stroke-width="2" stroke-linecap="round"/>
  <path d="M17 38L8 35M17 42L8 44M47 38L56 35M47 42L56 44" stroke="#704937" stroke-width="2" stroke-linecap="round"/>
</svg>
